<?xml version="1.0" standalone="yes"?>
<svg xmlns="http://www.w3.org/2000/svg" width="103" height="75">
<path style="fill:#fefefe; stroke:none;" d="M0 0L0 75L103 75L103 0L0 0z"/>
<path style="fill:#a6a7a9; stroke:none;" d="M8 17L9 17L12 16L8 17M47 14L47 15L49 17L50 17L47 14z"/>
<path style="fill:#4a4d51; stroke:none;" d="M66 14L66 15L82 15L66 14z"/>
<path style="fill:#6c6d71; stroke:none;" d="M82 14L83 15L82 14z"/>
<path style="fill:#a6a7a9; stroke:none;" d="M83.6667 14.3333L84.3333 14.6667L83.6667 14.3333z"/>
<path style="fill:#1a1d25; stroke:none;" d="M9 15C12.3931 19.7174 22.7088 31.228 29 31.0525C35.3469 30.8754 45.532 19.8216 49 15L29 28.2839L9 15z"/>
<path style="fill:#6c6d71; stroke:none;" d="M46 15L47 16L46 15z"/>
<path style="fill:#1a1d25; stroke:none;" d="M66 15L66 31C71.5088 31 80.9839 32.818 85.8557 29.9722C90.66 27.1659 90.4545 19.0002 85.7755 16.179C80.8753 13.2246 71.5545 15 66 15z"/>
<path style="fill:#6c6d71; stroke:none;" d="M85 15L86 16L85 15z"/>
<path style="fill:#a6a7a9; stroke:none;" d="M86 15L87 16L86 15z"/>
<path style="fill:#4a4d51; stroke:none;" d="M9 16L10 17L9 16z"/>
<path style="fill:#6c6d71; stroke:none;" d="M12 16L13 17L12 16M45 16L46 17L45 16z"/>
<path style="fill:#4a4d51; stroke:none;" d="M48 16L49 17L48 16M66 16L66 30L67 30L66 16z"/>
<path style="fill:#6c6d71; stroke:none;" d="M68 16L69 17L68 16z"/>
<path style="fill:#a6a7a9; stroke:none;" d="M68 30L83 30L83 29L69 29L69 17L82 17C69.8017 11.8814 68 20.1636 68 30z"/>
<path style="fill:#6c6d71; stroke:none;" d="M82 16L83 17L82 16z"/>
<path style="fill:#4a4d51; stroke:none;" d="M83 16L84 17L83 16z"/>
<path style="fill:#a6a7a9; stroke:none;" d="M87 16L88 17L87 16z"/>
<path style="fill:#4a4d51; stroke:none;" d="M10 17L11 18L10 17M13 17L14 18L13 17z"/>
<path style="fill:#a6a7a9; stroke:none;" d="M43 17L44 18L43 17z"/>
<path style="fill:#4a4d51; stroke:none;" d="M44 17L45 18L44 17z"/>
<path style="fill:#6c6d71; stroke:none;" d="M47 17L48 18L47 17z"/>
<path style="fill:#fefefe; stroke:none;" d="M69 17L69 29C73.3613 29 80.8117 30.4068 84.5664 27.821C87.96 25.4838 87.1813 20 83.8519 18.0278C80.0157 15.7554 73.3121 17 69 17z"/>
<path style="fill:#a6a7a9; stroke:none;" d="M84 17L85 18L84 17M88 17L89 18L88 17z"/>
<path style="fill:#6c6d71; stroke:none;" d="M11 18L12 19L11 18z"/>
<path style="fill:#4a4d51; stroke:none;" d="M14 18L15 19L14 18z"/>
<path style="fill:#a6a7a9; stroke:none;" d="M15 18L16 19L15 18M42 18L43 19L42 18z"/>
<path style="fill:#6c6d71; stroke:none;" d="M46 18L47 19L46 18z"/>
<path style="fill:#a6a7a9; stroke:none;" d="M85 18L87 20L85 18z"/>
<path style="fill:#4a4d51; stroke:none;" d="M86 18L87 19L86 18M88 18L89 19L88 18z"/>
<path style="fill:#a6a7a9; stroke:none;" d="M12 19L13 20L12 19M16 19L17 20L16 19M41 19L42 20L41 19M45 19L46 20L45 19M89 19L90 20L89 19M13 20L14 21L13 20M17 20L18 21L17 20z"/>
<path style="fill:#6c6d71; stroke:none;" d="M40 20L41 21L40 20z"/>
<path style="fill:#a6a7a9; stroke:none;" d="M44 20L45 21L44 20z"/>
<path style="fill:#6c6d71; stroke:none;" d="M87 20L88 21L87 20z"/>
<path style="fill:#4a4d51; stroke:none;" d="M89.3333 20.6667L89.6667 21.3333L89.3333 20.6667z"/>
<path style="fill:#a6a7a9; stroke:none;" d="M14 21L15 22L14 21z"/>
<path style="fill:#4a4d51; stroke:none;" d="M15 21L16 22L15 21z"/>
<path style="fill:#6c6d71; stroke:none;" d="M18 21L19 22L18 21M39 21L40 22L39 21z"/>
<path style="fill:#4a4d51; stroke:none;" d="M42 21L43 22L42 21z"/>
<path style="fill:#a6a7a9; stroke:none;" d="M43 21L44 22L43 21M87 21L87 25L88 25L87 21z"/>
<path style="fill:#4a4d51; stroke:none;" d="M16 22L17 23L16 22M19 22L20 23L19 22z"/>
<path style="fill:#a6a7a9; stroke:none;" d="M20 22L21 23L20 22M37 22L38 23L37 22z"/>
<path style="fill:#4a4d51; stroke:none;" d="M38 22L39 23L38 22z"/>
<path style="fill:#6c6d71; stroke:none;" d="M41 22L42 23L41 22z"/>
<path style="fill:#a6a7a9; stroke:none;" d="M90 22L90 25L91 25L90 22z"/>
<path style="fill:#6c6d71; stroke:none;" d="M17 23L18 24L17 23z"/>
<path style="fill:#a6a7a9; stroke:none;" d="M21 23L22 24L21 23M36 23L37 24L36 23M40 23L41 24L40 23M18 24L19 25L18 24M22 24L23 25L22 24M35 24L36 25L35 24M39 24L40 25L39 24z"/>
<path style="fill:#4a4d51; stroke:none;" d="M89.3333 24.6667L89.6667 25.3333L89.3333 24.6667z"/>
<path style="fill:#a6a7a9; stroke:none;" d="M19 25L20 26L19 25z"/>
<path style="fill:#6c6d71; stroke:none;" d="M23 25L24 26L23 25M34 25L35 26L34 25z"/>
<path style="fill:#4a4d51; stroke:none;" d="M37 25L38 26L37 25z"/>
<path style="fill:#a6a7a9; stroke:none;" d="M38 25L39 26L38 25z"/>
<path style="fill:#6c6d71; stroke:none;" d="M87 25L88 26L87 25z"/>
<path style="fill:#a6a7a9; stroke:none;" d="M20 26L21 27L20 26z"/>
<path style="fill:#4a4d51; stroke:none;" d="M21 26L22 27L21 26z"/>
<path style="fill:#6c6d71; stroke:none;" d="M24 26L25 27L24 26z"/>
<path style="fill:#4a4d51; stroke:none;" d="M33 26L34 27L33 26M36 26L37 27L36 26z"/>
<path style="fill:#a6a7a9; stroke:none;" d="M86 26L87 27L86 26z"/>
<path style="fill:#6c6d71; stroke:none;" d="M89 26L90 27L89 26z"/>
<path style="fill:#4a4d51; stroke:none;" d="M22 27L23 28L22 27M25 27L26 28L25 27z"/>
<path style="fill:#a6a7a9; stroke:none;" d="M26 27L27 28L26 27M31 27L32 28L31 27z"/>
<path style="fill:#4a4d51; stroke:none;" d="M32 27L33 28L32 27z"/>
<path style="fill:#6c6d71; stroke:none;" d="M35 27L36 28L35 27z"/>
<path style="fill:#4a4d51; stroke:none;" d="M86 27L87 28L86 27z"/>
<path style="fill:#6c6d71; stroke:none;" d="M23 28L24 29L23 28z"/>
<path style="fill:#a6a7a9; stroke:none;" d="M27 28L28 29L27 28M30 28L31 29L30 28M34 28L35 29L34 28M84 28L85 29L84 28z"/>
<path style="fill:#4a4d51; stroke:none;" d="M85 28L86 29L85 28z"/>
<path style="fill:#a6a7a9; stroke:none;" d="M88 28L89 29L88 28M24 29L25 30L24 29M28.6667 29.3333L29.3333 29.6667L28.6667 29.3333M33 29L34 30L33 29z"/>
<path style="fill:#6c6d71; stroke:none;" d="M83 29L84 30L83 29z"/>
<path style="fill:#a6a7a9; stroke:none;" d="M87 29L88 30L87 29M25 30L26 31L25 30z"/>
<path style="fill:#4a4d51; stroke:none;" d="M31 30L32 31L31 30z"/>
<path style="fill:#a6a7a9; stroke:none;" d="M32 30L33 31L32 30M86 30L87 31L86 30z"/>
<path style="fill:#4a4d51; stroke:none;" d="M6 31L7 32L6 31z"/>
<path style="fill:#a6a7a9; stroke:none;" d="M26 31L27 32L26 31z"/>
<path style="fill:#4a4d51; stroke:none;" d="M27 31L28 32L27 31M30 31L31 32L30 31z"/>
<path style="fill:#a6a7a9; stroke:none;" d="M50 31L48 34L50 31z"/>
<path style="fill:#4a4d51; stroke:none;" d="M51 31L51 63L52 63L51 31M66 31L66 32L83 32L66 31z"/>
<path style="fill:#6c6d71; stroke:none;" d="M83 31L84 32L83 31z"/>
<path style="fill:#a6a7a9; stroke:none;" d="M84 31L85 32L84 31z"/>
<path style="fill:#1a1d25; stroke:none;" d="M6 32L6 33L9 34L6 63C10.8737 58.7412 8 42.3204 8 36C19.9891 43.9305 25.6702 56.0634 38.9807 44.4113C41.252 42.423 42.7177 40.693 44 38L50 36L50 63L51 63L51 32L34 48C21.8031 48.2773 16.4332 36.779 6 32z"/>
<path style="fill:#a6a7a9; stroke:none;" d="M8 32L9 33L8 32z"/>
<path style="fill:#4a4d51; stroke:none;" d="M28 32L29 33L28 32z"/>
<path style="fill:#6c6d71; stroke:none;" d="M29 32L30 33L29 32z"/>
<path style="fill:#4a4d51; stroke:none;" d="M6 33L6 62L7 62L9 34L6 33z"/>
<path style="fill:#a6a7a9; stroke:none;" d="M9 33L10 34L9 33z"/>
<path style="fill:#6c6d71; stroke:none;" d="M10 34L11 35L10 34M47 34L48 35L47 34z"/>
<path style="fill:#4a4d51; stroke:none;" d="M49 34L50 35L49 34z"/>
<path style="fill:#6c6d71; stroke:none;" d="M11 35L12 36L11 35z"/>
<path style="fill:#4a4d51; stroke:none;" d="M46 35L47 36L46 35z"/>
<path style="fill:#a6a7a9; stroke:none;" d="M8 36L8 63L9 63L8 36z"/>
<path style="fill:#6c6d71; stroke:none;" d="M9 36L10 37L9 36z"/>
<path style="fill:#4a4d51; stroke:none;" d="M12 36L13 37L12 36z"/>
<path style="fill:#a6a7a9; stroke:none;" d="M13 36L14 37L13 36M44 36L45 37L44 36z"/>
<path style="fill:#4a4d51; stroke:none;" d="M45 36L46 37L45 36z"/>
<path style="fill:#6c6d71; stroke:none;" d="M48.6667 36.3333L49.3333 36.6667L48.6667 36.3333M10 37L11 38L10 37z"/>
<path style="fill:#a6a7a9; stroke:none;" d="M14 37L15 38L14 37M43 37L44 38L43 37z"/>
<path style="fill:#6c6d71; stroke:none;" d="M47 37L48 38L47 37z"/>
<path style="fill:#a6a7a9; stroke:none;" d="M49 37L49 63L50 63L49 37M11 38L12 39L11 38M15 38L16 39L15 38M42 38L43 39L42 38z"/>
<path style="fill:#4a4d51; stroke:none;" d="M44.3333 38.6667L44.6667 39.3333L44.3333 38.6667z"/>
<path style="fill:#a6a7a9; stroke:none;" d="M46 38L47 39L46 38M12 39L13 40L12 39z"/>
<path style="fill:#6c6d71; stroke:none;" d="M16 39L17 40L16 39M41 39L42 40L41 39z"/>
<path style="fill:#a6a7a9; stroke:none;" d="M45 39L46 40L45 39M13 40L14 41L13 40z"/>
<path style="fill:#4a4d51; stroke:none;" d="M14 40L15 41L14 40z"/>
<path style="fill:#6c6d71; stroke:none;" d="M17 40L18 41L17 40z"/>
<path style="fill:#4a4d51; stroke:none;" d="M40 40L41 41L40 40M43 40L44 41L43 40z"/>
<path style="fill:#6c6d71; stroke:none;" d="M15 41L16 42L15 41z"/>
<path style="fill:#4a4d51; stroke:none;" d="M18 41L19 42L18 41z"/>
<path style="fill:#a6a7a9; stroke:none;" d="M19 41L20 42L19 41M38 41L39 42L38 41z"/>
<path style="fill:#4a4d51; stroke:none;" d="M39 41L40 42L39 41z"/>
<path style="fill:#6c6d71; stroke:none;" d="M42 41L43 42L42 41M16 42L17 43L16 42z"/>
<path style="fill:#a6a7a9; stroke:none;" d="M20 42L21 43L20 42M37 42L38 43L37 42M41 42L42 43L41 42M17 43L18 44L17 43z"/>
<path style="fill:#4a4d51; stroke:none;" d="M19 43L20 44L19 43z"/>
<path style="fill:#a6a7a9; stroke:none;" d="M21 43L22 44L21 43z"/>
<path style="fill:#6c6d71; stroke:none;" d="M36 43L37 44L36 43z"/>
<path style="fill:#a6a7a9; stroke:none;" d="M40 43L41 44L40 43M18 44L19 45L18 44z"/>
<path style="fill:#6c6d71; stroke:none;" d="M22 44L23 45L22 44M35 44L36 45L35 44z"/>
<path style="fill:#4a4d51; stroke:none;" d="M38 44L39 45L38 44z"/>
<path style="fill:#a6a7a9; stroke:none;" d="M39 44L40 45L39 44M19 45L20 46L19 45z"/>
<path style="fill:#4a4d51; stroke:none;" d="M20 45L21 46L20 45z"/>
<path style="fill:#6c6d71; stroke:none;" d="M23 45L24 46L23 45z"/>
<path style="fill:#a6a7a9; stroke:none;" d="M33 45L32 47L33 45z"/>
<path style="fill:#4a4d51; stroke:none;" d="M34 45L35 46L34 45z"/>
<path style="fill:#6c6d71; stroke:none;" d="M37 45L38 46L37 45z"/>
<path style="fill:#a6a7a9; stroke:none;" d="M66 45L66 46L91 46L66 45z"/>
<path style="fill:#6c6d71; stroke:none;" d="M21 46L22 47L21 46z"/>
<path style="fill:#4a4d51; stroke:none;" d="M24 46L25 47L24 46z"/>
<path style="fill:#a6a7a9; stroke:none;" d="M25 46L26 47L25 46z"/>
<path style="fill:#4a4d51; stroke:none;" d="M33.3333 46.6667L33.6667 47.3333L33.3333 46.6667z"/>
<path style="fill:#6c6d71; stroke:none;" d="M36 46L37 47L36 46z"/>
<path style="fill:#1a1d25; stroke:none;" d="M66 46L66 47C72.8609 47 93.3603 43.6227 94.338 54.0008C95.3967 65.2394 72.3703 62 66 62C71.6018 64.3506 86.443 64.6673 91.8912 61.6821C96.8449 58.9679 97.2589 51.1333 92.7716 47.7423C86.9532 43.3453 73.0104 46 66 46z"/>
<path style="fill:#6c6d71; stroke:none;" d="M91 46L92 47L91 46z"/>
<path style="fill:#a6a7a9; stroke:none;" d="M92 46L93 47L92 46z"/>
<path style="fill:#6c6d71; stroke:none;" d="M22 47L23 48L22 47z"/>
<path style="fill:#a6a7a9; stroke:none;" d="M26 47L27 48L26 47M31 47L32 48L31 47M35 47L36 48L35 47z"/>
<path style="fill:#4a4d51; stroke:none;" d="M66 47L66 62L89 62L89 61L67 61L67 48L89 48L66 47z"/>
<path style="fill:#a6a7a9; stroke:none;" d="M93 47L94 48L93 47M23 48L24 49L23 48M27 48L28 49L27 48z"/>
<path style="fill:#6c6d71; stroke:none;" d="M30 48L31 49L30 48z"/>
<path style="fill:#a6a7a9; stroke:none;" d="M34 48L35 49L34 48z"/>
<path style="fill:#1a1d25; stroke:none;" d="M67 48L67 61L68 61L67 48z"/>
<path style="fill:#a6a7a9; stroke:none;" d="M68 48L68 61L69 61L68 48z"/>
<path style="fill:#fefefe; stroke:none;" d="M69 48L69 61C73.8343 61 100.076 63.0082 92.8164 51.3943C89.0784 45.4142 74.9974 48 69 48z"/>
<path style="fill:#a6a7a9; stroke:none;" d="M89 48L89 49L92 50L89 48z"/>
<path style="fill:#4a4d51; stroke:none;" d="M91 48L92 49L91 48z"/>
<path style="fill:#a6a7a9; stroke:none;" d="M94 48L95 49L94 48M24 49L25 50L24 49z"/>
<path style="fill:#4a4d51; stroke:none;" d="M25 49L26 50L25 49z"/>
<path style="fill:#6c6d71; stroke:none;" d="M28.6667 49.3333L29.3333 49.6667L28.6667 49.3333z"/>
<path style="fill:#4a4d51; stroke:none;" d="M32 49L33 50L32 49z"/>
<path style="fill:#a6a7a9; stroke:none;" d="M33 49L34 50L33 49z"/>
<path style="fill:#4a4d51; stroke:none;" d="M92 49L93 50L92 49z"/>
<path style="fill:#a6a7a9; stroke:none;" d="M95 49L96 50L95 49z"/>
<path style="fill:#4a4d51; stroke:none;" d="M26 50L27 51L26 50z"/>
<path style="fill:#6c6d71; stroke:none;" d="M31 50L32 51L31 50z"/>
<path style="fill:#4a4d51; stroke:none;" d="M93 50L94 51L93 50M95 50L96 51L95 50z"/>
<path style="fill:#6c6d71; stroke:none;" d="M27 51L28 52L27 51M30 51L31 52L30 51z"/>
<path style="fill:#a6a7a9; stroke:none;" d="M93 51L94 52L93 51M96 51L97 52L96 51M28.6667 52.3333L29.3333 52.6667L28.6667 52.3333z"/>
<path style="fill:#4a4d51; stroke:none;" d="M94 52L95 53L94 52z"/>
<path style="fill:#6c6d71; stroke:none;" d="M96 52L96 56L97 56L96 52M94 53L95 54L94 53z"/>
<path style="fill:#a6a7a9; stroke:none;" d="M94 54L95 55L94 54z"/>
<path style="fill:#6c6d71; stroke:none;" d="M94 55L95 56L94 55z"/>
<path style="fill:#4a4d51; stroke:none;" d="M94 56L95 57L94 56z"/>
<path style="fill:#a6a7a9; stroke:none;" d="M96.3333 56.6667L96.6667 57.3333L96.3333 56.6667M93 57L91 60L93 57z"/>
<path style="fill:#4a4d51; stroke:none;" d="M93 58L94 59L93 58M95 58L96 59L95 58M92 59L93 60L92 59z"/>
<path style="fill:#a6a7a9; stroke:none;" d="M95 59L96 60L95 59M89 60L90 61L89 60z"/>
<path style="fill:#6c6d71; stroke:none;" d="M90 60L91 61L90 60z"/>
<path style="fill:#a6a7a9; stroke:none;" d="M94 60L95 61L94 60M93 61L94 62L93 61z"/>
<path style="fill:#4a4d51; stroke:none;" d="M90 62L91 63L90 62z"/>
<path style="fill:#6c6d71; stroke:none;" d="M91 62L92 63L91 62z"/>
<path style="fill:#a6a7a9; stroke:none;" d="M6.66667 63.3333L7.33333 63.6667L6.66667 63.3333M50.6667 63.3333L51.3333 63.6667L50.6667 63.3333M66 63L66 64L90 64L66 63z"/>
</svg>
